<?xml version="1.0" encoding="UTF-8"?><svg xmlns="http://www.w3.org/2000/svg" viewBox="0 -53.35 270.27 270.27"><defs><style>.cls-1{fill:#fd540a;}.cls-2{fill:#fd6f12;}</style></defs><g><path class="cls-1" d="M.04,105.83c-.02.41-.04.84-.04,1.26l.02-1.26h.02Z"/><path class="cls-1" d="M268.74,163.58l-215.87-3.24c-29.16-.43-52.56-24.16-52.87-53.22v-.02l95.03,1.42,142.95,5.69c5.87,2.72,11.13,6.51,15.58,11.15,9.6,9.85,15.4,23.37,15.17,38.21Z"/><path class="cls-1" d="M270.26,57.5l-119.25-1.79-114.51-4.51C15.85,43.45,1.26,23.39,1.61,0l215.81,3.24c14.84.23,28.17,6.41,37.72,16.3,9.5,9.79,15.29,23.25,15.13,37.96Z"/><path class="cls-2" d="M270.26,57.5v.25c-.29,14.7-6.47,27.97-16.24,37.47-5.4,5.23-11.93,9.36-19.11,11.93h-.06l-87.8.89h-.31l-51.59.49h-.12L0,107.11v-.02c0-.41.02-.84.04-1.26.87-22.44,15.52-41.36,35.64-48.48l125.21-1.26-9.87-.39,119.25,1.79Z"/></g></svg>
